<svg xmlns="http://www.w3.org/2000/svg" viewBox="0 0 64 64" role="img" aria-label="Tyler Stahl monogram favicon">
  <defs>
    <linearGradient id="bg" x1="10" y1="8" x2="54" y2="56" gradientUnits="userSpaceOnUse">
      <stop stop-color="#7dd3fc"/>
      <stop offset="0.52" stop-color="#2563eb"/>
      <stop offset="1" stop-color="#111827"/>
    </linearGradient>
  </defs>
  <rect width="64" height="64" rx="18" fill="url(#bg)"/>
  <path d="M16 18h32v8H36v24h-8V26H16z" fill="#f8fafc"/>
  <path d="M44 42c0 5-4 9-12 9-5 0-10-1.6-13.5-4.5l4.2-6.1c2.7 2.2 5.8 3.3 9.3 3.3 2.5 0 4-.7 4-2 0-4.1-15.8-.8-15.8-11.5 0-1.6.4-3 1.1-4.2h9.4c-1.7.3-2.6.9-2.6 1.9 0 3.8 15.9.7 15.9 11.1z" fill="#bfdbfe" opacity="0.95"/>
</svg>
